# xmcd CD database file
#
# Track frame offsets:
#	150
#	17940
#	31993
#	52532
#	82518
#	106446
#	127266
#	143661
#	161696
#	176135
#	207374
#	224357
#	242110
#	261451
#
# Disc length: 3692 seconds
#
# Revision: 0
# Processed by: cddbd v1.5.2PL0 Copyright (c) Steve Scherf et al.
# Submitted via: CDex 1.51
#
DISCID=c40e6a0e
DTITLE=YASUKO NAKATANI - I'M NOT ALONE
DYEAR=2007
DGENRE=Jazz
TTITLE0=I'M NOT ALONE
TTITLE1=ACASO
TTITLE2=THE ISLAND
TTITLE3=LOVE DANCE
TTITLE4=BLUE BASSA
TTITLE5=NOCTURN
TTITLE6=SAMBA DO AVIAO
TTITLE7=SWEET TRESENCE
TTITLE8=VELAS ICADAS
TTITLE9=RIO DE MAIO
TTITLE10=LIKE A LOVER
TTITLE11=DAQUILO QUE EU SEI
TTITLE12=BRIDGES
TTITLE13=MUNE NO FURIKO
EXTD=YEAR: 2007
EXTT0=
EXTT1=
EXTT2=
EXTT3=
EXTT4=
EXTT5=
EXTT6=
EXTT7=
EXTT8=
EXTT9=
EXTT10=
EXTT11=
EXTT12=
EXTT13=
PLAYORDER=
